# xmcd
#
# Track frame offsets:
#	150
#	12483
#	30893
#	47602
#	62852
#	78771
#	94472
#	110413
#	134809
#	150430
#	170163
#	186810
#	199114
#	213918
#
# Disc length: 3044 seconds
# Revision: 2
# Processed by: cddbd v1.5.2PL0 Copyright (c) Steve Scherf et al.
# Submitted via: dBpowerAMP V12.0
#
DISCID=bc0be20e
DTITLE=Mark Schatz - Steppin' in the Boiler House
DYEAR=2006
DGENRE=Bluegrass
TTITLE0=Rig Root
TTITLE1=The Falling Waters Of Arden
TTITLE2=Cajun Stomp
TTITLE3=Eileen's Waltz
TTITLE4=Last Old Dollar
TTITLE5=Season Of Joy
TTITLE6=Lennie's Misfortune
TTITLE7=Steppin' In The Boiler House
TTITLE8=Calgary
TTITLE9=Robindale/Slate
TTITLE10=The Devil's Game
TTITLE11=Chelsea Town
TTITLE12=Stay All Night
TTITLE13=Black Mountain Aire
EXTD=
EXTT0=
EXTT1=
EXTT2=
EXTT3=
EXTT4=
EXTT5=
EXTT6=
EXTT7=
EXTT8=
EXTT9=
EXTT10=
EXTT11=
EXTT12=
EXTT13=
PLAYORDER=
